Coordinates
version=1
nRows=14
nColumns=24
inDegrees=yes

Units are S.I. units (second, meters, Newtons, ...)
Angles are in degrees.

endheader
time	pelvis_tilt	pelvis_list	pelvis_rotation	pelvis_tx	pelvis_ty	pelvis_tz	hip_flexion_r	hip_adduction_r	hip_rotation_r	knee_angle_r	ankle_angle_r	subtalar_angle_r	mtp_angle_r	hip_flexion_l	hip_adduction_l	hip_rotation_l	knee_angle_l	ankle_angle_l	subtalar_angle_l	mtp_angle_l	lumbar_extension	lumbar_bending	lumbar_rotation
      5.62000000	      0.02427999	     -5.06700218	      4.72423190	      2.66553310	      0.70596467	     -0.17095370	      2.05216761	     13.81946541	     14.72469870	     -4.88601165	      9.41363658	    -17.10552552	      0.00000000	     25.47948094	     -1.82438923	      4.16526919	    -66.42892789	      3.49017435	    -13.13238595	      0.00000000	    -10.19634433	      6.20199455	     -5.47171946
      5.63000000	     -0.19301721	     -4.51765997	      4.24035416	      2.67791043	      0.70661417	     -0.17017721	      0.48293996	     13.17348938	     15.69769206	     -3.81424792	      9.67527163	    -17.13053445	      0.00000000	     26.98876781	     -1.03644723	      4.20623777	    -64.46178324	      3.95567311	    -14.05529086	      0.00000000	    -10.15641104	      5.29403964	     -4.74716028
      5.64000000	     -0.11099209	     -4.02095213	      3.75445047	      2.69013246	      0.70715411	     -0.16949336	     -1.44888885	     12.53504925	     17.14981246	     -2.61553508	      9.66382509	    -17.79290285	      0.00000000	     28.01964384	     -0.33829208	      4.34438957	    -62.11530176	      4.24396926	    -14.92873132	      0.00000000	    -10.58790018	      4.51156927	     -4.02920205
      5.65000000	     -0.23549946	     -3.65462177	      3.14444836	      2.70221907	      0.70710301	     -0.16874857	     -2.97715501	     12.02377796	     18.27084699	     -1.68851587	      9.89062435	    -18.03683922	      0.00000000	     29.11095397	      0.17719741	      4.52925825	    -59.37876614	      4.37345273	    -15.76564978	      0.00000000	    -10.80199159	      3.88032251	     -3.21576056
      5.66000000	     -0.35942651	     -3.37649608	      2.47390064	      2.71422241	      0.70670978	     -0.16803208	     -4.42291076	     11.58545230	     19.35957871	     -0.87998714	     10.21150375	    -18.20577538	      0.00000000	     30.00410053	      0.55395262	      4.81046509	    -56.22551486	      4.42902907	    -16.47498146	      0.00000000	    -11.05027195	      3.37962799	     -2.40393397
      5.67000000	     -0.62464356	     -3.21297990	      1.71381868	      2.72613749	      0.70584919	     -0.16728104	     -5.59021338	     11.26615645	     20.34035598	     -0.28088585	     10.70025383	    -18.16934726	      0.00000000	     30.84470651	      0.75146949	      5.20403634	    -52.66190397	      4.43880135	    -17.01067590	      0.00000000	    -11.15065811	      3.02213471	     -1.52030184
      5.68000000	     -0.59319507	     -2.99516417	      1.04720041	      2.73814845	      0.70508253	     -0.16669923	     -7.11406836	     10.85420919	     21.49156367	      0.39262350	     10.99703028	    -18.62881254	      0.00000000	     31.05591101	      1.00443255	      5.81879960	    -48.55779623	      4.43917086	    -17.40563540	      0.00000000	    -11.61792367	      2.63126882	     -0.85128617
      5.69000000	     -0.86518776	     -2.92893430	      0.25994935	      2.75012099	      0.70372260	     -0.16597942	     -8.14486996	     10.62632204	     22.47328141	      0.75158577	     11.55206726	    -18.68939340	      0.00000000	     31.35954279	      1.00162654	      6.55249485	    -44.03989998	      4.38136632	    -17.70651265	      0.00000000	    -11.70265013	      2.41353131	     -0.03604828
      5.70000000	     -0.94420822	     -2.84707650	     -0.47132330	      2.76224875	      0.70237927	     -0.16531579	     -9.36804383	     10.37327718	     23.42397541	      1.06235020	     12.13045307	    -18.82539049	      0.00000000	     31.10472363	      0.97573150	      7.52369723	    -38.96357536	      4.20194595	    -18.11680501	      0.00000000	    -11.99776479	      2.18029820	      0.63616610
      5.71000000	     -0.89300338	     -2.83185950	     -1.13873653	      2.77452354	      0.70096871	     -0.16465783	    -10.69552301	     10.19467193	     24.29000751	      1.27669497	     12.70291153	    -18.91237103	      0.00000000	     30.38348378	      0.82858321	      8.80658856	    -33.40121241	      3.81397466	    -18.65595057	      0.00000000	    -12.42328138	      2.02204847	      1.16788528
      5.72000000	     -0.87502092	     -2.92668325	     -1.82267313	      2.78710258	      0.69923906	     -0.16382497	    -11.94237810	     10.16541472	     24.96371458	      1.33181776	     13.40659377	    -18.79930746	      0.00000000	     29.38949706	      0.42875633	     10.20767601	    -27.41936684	      3.17143651	    -19.58535017	      0.00000000	    -12.70051450	      1.96203084	      1.72339361
      5.73000000	     -0.93508306	     -3.18984245	     -2.63091050	      2.79989196	      0.69717555	     -0.16265752	    -13.03483977	     10.32590052	     25.68727735	      1.14435262	     14.26096720	    -18.39046579	      0.00000000	     28.24730578	     -0.36054431	     11.52817594	    -21.20173345	      2.17782622	    -20.75606901	      0.00000000	    -12.81537463	      2.05879406	      2.36408349
      5.74000000	     -0.73763921	     -3.72885193	     -3.35243074	      2.81277500	      0.69509498	     -0.16144745	    -14.36444705	     10.80399646	     26.12862690	      0.77485796	     15.18591071	    -17.58071931	      0.00000000	     26.73760099	     -1.50800242	     12.84520400	    -15.03147318	      0.88778790	    -22.04401446	      0.00000000	    -13.26056418	      2.47492475	      2.91394976
      5.75000000	     -0.69728897	     -4.46526862	     -4.15624388	      2.82598027	      0.69259594	     -0.15991253	    -15.47827128	     11.52549176	     26.41880420	      0.14526352	     16.21131780	    -16.45600385	      0.00000000	     25.44938068	     -2.98051508	     13.06058003	     -9.30522356	     -0.02429617	    -22.44500875	      0.00000000	    -13.41323754	      3.07538536	      3.61565072
